<?xml version="1.0" encoding="UTF-8" standalone="no"?>
<!DOCTYPE svg PUBLIC "-//W3C//DTD SVG 1.1//EN"
 "http://www.w3.org/Graphics/SVG/1.1/DTD/svg11.dtd">
<!-- Generated by graphviz version 2.43.0 (0)
 -->
<!-- Title: G Pages: 1 -->
<svg width="679pt" height="152pt"
 viewBox="0.00 0.00 678.61 152.00" xmlns="http://www.w3.org/2000/svg" xmlns:xlink="http://www.w3.org/1999/xlink">
<g id="graph0" class="graph" transform="scale(1 1) rotate(0) translate(4 148)">
<title>G</title>
<polygon fill="white" stroke="transparent" points="-4,4 -4,-148 674.61,-148 674.61,4 -4,4"/>
<!-- Rakudo::Internals::ReactOneWheneverAwaitHandle -->
<g id="node1" class="node">
<title>Rakudo::Internals::ReactOneWheneverAwaitHandle</title>
<ellipse fill="none" stroke="black" cx="286.51" cy="-126" rx="195.84" ry="18"/>
<text text-anchor="middle" x="286.51" y="-121.8" font-family="Times,serif" font-size="14.00">Rakudo::Internals::ReactOneWheneverAwaitHandle</text>
</g>
<!-- Awaitable::Handle -->
<g id="node2" class="node">
<title>Awaitable::Handle</title>
<ellipse fill="none" stroke="black" cx="594.52" cy="-99" rx="76.17" ry="18"/>
<text text-anchor="middle" x="594.52" y="-94.8" font-family="Times,serif" font-size="14.00">Awaitable::Handle</text>
</g>
<!-- Rakudo::Internals::ReactOneWheneverAwaitHandle&#45;&gt;Awaitable::Handle -->
<g id="edge1" class="edge">
<title>Rakudo::Internals::ReactOneWheneverAwaitHandle&#45;&gt;Awaitable::Handle</title>
<path fill="none" stroke="black" d="M428.42,-113.57C457.37,-111.01 486.89,-108.41 512.81,-106.12"/>
<polygon fill="black" stroke="black" points="513.29,-109.59 522.94,-105.23 512.67,-102.62 513.29,-109.59"/>
</g>
<!-- Rakudo::Internals::ReactAwaitable -->
<g id="node3" class="node">
<title>Rakudo::Internals::ReactAwaitable</title>
<ellipse fill="none" stroke="black" cx="286.51" cy="-18" rx="134.09" ry="18"/>
<text text-anchor="middle" x="286.51" y="-13.8" font-family="Times,serif" font-size="14.00">Rakudo::Internals::ReactAwaitable</text>
</g>
<!-- Awaitable -->
<g id="node4" class="node">
<title>Awaitable</title>
<ellipse fill="none" stroke="black" cx="594.52" cy="-18" rx="45.77" ry="18"/>
<text text-anchor="middle" x="594.52" y="-13.8" font-family="Times,serif" font-size="14.00">Awaitable</text>
</g>
<!-- Rakudo::Internals::ReactAwaitable&#45;&gt;Awaitable -->
<g id="edge2" class="edge">
<title>Rakudo::Internals::ReactAwaitable&#45;&gt;Awaitable</title>
<path fill="none" stroke="black" d="M420.84,-18C462.26,-18 505.64,-18 538.55,-18"/>
<polygon fill="black" stroke="black" points="538.86,-21.5 548.86,-18 538.86,-14.5 538.86,-21.5"/>
</g>
<!-- class -->
<g id="node5" class="node">
<title>class</title>
<ellipse fill="none" stroke="black" cx="27.3" cy="-72" rx="27.1" ry="18"/>
<text text-anchor="middle" x="27.3" y="-67.8" font-family="Times,serif" font-size="14.00">class</text>
</g>
<!-- class&#45;&gt;Rakudo::Internals::ReactOneWheneverAwaitHandle -->
<g id="edge3" class="edge">
<title>class&#45;&gt;Rakudo::Internals::ReactOneWheneverAwaitHandle</title>
<path fill="none" stroke="black" d="M49.4,-82.85C61.22,-88.49 76.41,-95.02 90.59,-99 107.59,-103.77 125.67,-107.71 143.71,-110.96"/>
<polygon fill="black" stroke="black" points="143.26,-114.44 153.71,-112.7 144.46,-107.54 143.26,-114.44"/>
</g>
<!-- class&#45;&gt;Rakudo::Internals::ReactAwaitable -->
<g id="edge4" class="edge">
<title>class&#45;&gt;Rakudo::Internals::ReactAwaitable</title>
<path fill="none" stroke="black" d="M49.4,-61.15C61.22,-55.51 76.41,-48.98 90.59,-45 114.23,-38.37 139.95,-33.34 164.73,-29.53"/>
<polygon fill="black" stroke="black" points="165.53,-32.95 174.91,-28.02 164.5,-26.02 165.53,-32.95"/>
</g>
<!-- Rakudo::Internals::ReactAwaitHandle -->
<g id="node6" class="node">
<title>Rakudo::Internals::ReactAwaitHandle</title>
<ellipse fill="none" stroke="black" cx="286.51" cy="-72" rx="144.71" ry="18"/>
<text text-anchor="middle" x="286.51" y="-67.8" font-family="Times,serif" font-size="14.00">Rakudo::Internals::ReactAwaitHandle</text>
</g>
<!-- class&#45;&gt;Rakudo::Internals::ReactAwaitHandle -->
<g id="edge5" class="edge">
<title>class&#45;&gt;Rakudo::Internals::ReactAwaitHandle</title>
<path fill="none" stroke="black" d="M54.86,-72C74.06,-72 101.73,-72 131.28,-72"/>
<polygon fill="black" stroke="black" points="131.36,-75.5 141.36,-72 131.36,-68.5 131.36,-75.5"/>
</g>
<!-- Rakudo::Internals::ReactAwaitHandle&#45;&gt;Awaitable::Handle -->
<g id="edge6" class="edge">
<title>Rakudo::Internals::ReactAwaitHandle&#45;&gt;Awaitable::Handle</title>
<path fill="none" stroke="black" d="M405.39,-82.4C441.39,-85.58 480.15,-89 513.07,-91.9"/>
<polygon fill="black" stroke="black" points="512.82,-95.39 523.09,-92.79 513.44,-88.42 512.82,-95.39"/>
</g>
</g>
</svg>
