<?xml version="1.0" encoding="UTF-8" standalone="no"?>
<!DOCTYPE svg PUBLIC "-//W3C//DTD SVG 1.1//EN"
 "http://www.w3.org/Graphics/SVG/1.1/DTD/svg11.dtd">
<!-- Generated by graphviz version 2.43.0 (0)
 -->
<!-- Title: G Pages: 1 -->
<svg width="568pt" height="368pt"
 viewBox="0.00 0.00 567.97 368.00" xmlns="http://www.w3.org/2000/svg" xmlns:xlink="http://www.w3.org/1999/xlink">
<g id="graph0" class="graph" transform="scale(1 1) rotate(0) translate(4 364)">
<title>G</title>
<polygon fill="white" stroke="transparent" points="-4,4 -4,-364 563.97,-364 563.97,4 -4,4"/>
<!-- class -->
<g id="node1" class="node">
<title>class</title>
<ellipse fill="none" stroke="black" cx="27.3" cy="-180" rx="27.1" ry="18"/>
<text text-anchor="middle" x="27.3" y="-175.8" font-family="Times,serif" font-size="14.00">class</text>
</g>
<!-- CtxSymIterator::Values -->
<g id="node2" class="node">
<title>CtxSymIterator::Values</title>
<ellipse fill="none" stroke="black" cx="242.16" cy="-288" rx="93.73" ry="18"/>
<text text-anchor="middle" x="242.16" y="-283.8" font-family="Times,serif" font-size="14.00">CtxSymIterator::Values</text>
</g>
<!-- class&#45;&gt;CtxSymIterator::Values -->
<g id="edge1" class="edge">
<title>class&#45;&gt;CtxSymIterator::Values</title>
<path fill="none" stroke="black" d="M36.47,-196.98C46.48,-215.83 65.28,-245.61 90.59,-261 106.1,-270.43 124.06,-276.75 142.06,-280.95"/>
<polygon fill="black" stroke="black" points="141.53,-284.41 152.04,-283.07 142.99,-277.57 141.53,-284.41"/>
</g>
<!-- CtxSymIterator::Pairs -->
<g id="node3" class="node">
<title>CtxSymIterator::Pairs</title>
<ellipse fill="none" stroke="black" cx="242.16" cy="-234" rx="87.95" ry="18"/>
<text text-anchor="middle" x="242.16" y="-229.8" font-family="Times,serif" font-size="14.00">CtxSymIterator::Pairs</text>
</g>
<!-- class&#45;&gt;CtxSymIterator::Pairs -->
<g id="edge2" class="edge">
<title>class&#45;&gt;CtxSymIterator::Pairs</title>
<path fill="none" stroke="black" d="M49.46,-190.63C61.31,-196.2 76.49,-202.74 90.59,-207 112.09,-213.49 135.81,-218.64 157.94,-222.62"/>
<polygon fill="black" stroke="black" points="157.53,-226.1 167.98,-224.37 158.73,-219.21 157.53,-226.1"/>
</g>
<!-- Grammar -->
<g id="node4" class="node">
<title>Grammar</title>
<ellipse fill="none" stroke="black" cx="242.16" cy="-126" rx="43.98" ry="18"/>
<text text-anchor="middle" x="242.16" y="-121.8" font-family="Times,serif" font-size="14.00">Grammar</text>
</g>
<!-- class&#45;&gt;Grammar -->
<g id="edge3" class="edge">
<title>class&#45;&gt;Grammar</title>
<path fill="none" stroke="black" d="M49.46,-169.37C61.31,-163.8 76.49,-157.26 90.59,-153 122.89,-143.25 160.2,-136.53 189.61,-132.23"/>
<polygon fill="black" stroke="black" points="190.24,-135.68 199.65,-130.81 189.26,-128.74 190.24,-135.68"/>
</g>
<!-- CtxWalker -->
<g id="node5" class="node">
<title>CtxWalker</title>
<ellipse fill="none" stroke="black" cx="242.16" cy="-180" rx="48.4" ry="18"/>
<text text-anchor="middle" x="242.16" y="-175.8" font-family="Times,serif" font-size="14.00">CtxWalker</text>
</g>
<!-- class&#45;&gt;CtxWalker -->
<g id="edge4" class="edge">
<title>class&#45;&gt;CtxWalker</title>
<path fill="none" stroke="black" d="M54.83,-180C86.85,-180 141.6,-180 183.5,-180"/>
<polygon fill="black" stroke="black" points="183.58,-183.5 193.58,-180 183.58,-176.5 183.58,-183.5"/>
</g>
<!-- CtxSymIterator::Keys -->
<g id="node6" class="node">
<title>CtxSymIterator::Keys</title>
<ellipse fill="none" stroke="black" cx="242.16" cy="-342" rx="88.43" ry="18"/>
<text text-anchor="middle" x="242.16" y="-337.8" font-family="Times,serif" font-size="14.00">CtxSymIterator::Keys</text>
</g>
<!-- class&#45;&gt;CtxSymIterator::Keys -->
<g id="edge7" class="edge">
<title>class&#45;&gt;CtxSymIterator::Keys</title>
<path fill="none" stroke="black" d="M31.2,-198.18C36.93,-227.68 52.61,-285.64 90.59,-315 105.98,-326.89 124.89,-334.19 144.04,-338.55"/>
<polygon fill="black" stroke="black" points="143.57,-342.02 154.06,-340.57 144.95,-335.16 143.57,-342.02"/>
</g>
<!-- PseudoStash -->
<g id="node8" class="node">
<title>PseudoStash</title>
<ellipse fill="none" stroke="black" cx="242.16" cy="-72" rx="54.64" ry="18"/>
<text text-anchor="middle" x="242.16" y="-67.8" font-family="Times,serif" font-size="14.00">PseudoStash</text>
</g>
<!-- class&#45;&gt;PseudoStash -->
<g id="edge10" class="edge">
<title>class&#45;&gt;PseudoStash</title>
<path fill="none" stroke="black" d="M36.47,-163.02C46.48,-144.17 65.28,-114.39 90.59,-99 116.36,-83.33 148.89,-76.25 177.12,-73.22"/>
<polygon fill="black" stroke="black" points="177.67,-76.69 187.3,-72.28 177.02,-69.72 177.67,-76.69"/>
</g>
<!-- Perl6::Metamodel::v6e::GrammarHOW -->
<g id="node10" class="node">
<title>Perl6::Metamodel::v6e::GrammarHOW</title>
<ellipse fill="none" stroke="black" cx="242.16" cy="-18" rx="151.63" ry="18"/>
<text text-anchor="middle" x="242.16" y="-13.8" font-family="Times,serif" font-size="14.00">Perl6::Metamodel::v6e::GrammarHOW</text>
</g>
<!-- class&#45;&gt;Perl6::Metamodel::v6e::GrammarHOW -->
<g id="edge9" class="edge">
<title>class&#45;&gt;Perl6::Metamodel::v6e::GrammarHOW</title>
<path fill="none" stroke="black" d="M31.2,-161.82C36.93,-132.32 52.61,-74.36 90.59,-45 96.8,-40.2 103.58,-36.16 110.71,-32.75"/>
<polygon fill="black" stroke="black" points="112.14,-35.94 119.92,-28.76 109.36,-29.52 112.14,-35.94"/>
</g>
<!-- CtxSymIterator -->
<g id="node7" class="node">
<title>CtxSymIterator</title>
<ellipse fill="none" stroke="black" cx="494.84" cy="-288" rx="65.25" ry="18"/>
<text text-anchor="middle" x="494.84" y="-283.8" font-family="Times,serif" font-size="14.00">CtxSymIterator</text>
</g>
<!-- CtxSymIterator::Values&#45;&gt;CtxSymIterator -->
<g id="edge11" class="edge">
<title>CtxSymIterator::Values&#45;&gt;CtxSymIterator</title>
<path fill="none" stroke="black" d="M335.79,-288C363.25,-288 392.96,-288 419.13,-288"/>
<polygon fill="black" stroke="black" points="419.35,-291.5 429.35,-288 419.35,-284.5 419.35,-291.5"/>
</g>
<!-- CtxSymIterator::Pairs&#45;&gt;CtxSymIterator -->
<g id="edge8" class="edge">
<title>CtxSymIterator::Pairs&#45;&gt;CtxSymIterator</title>
<path fill="none" stroke="black" d="M311.61,-245C337.44,-249.48 367.03,-255.02 393.72,-261 408.57,-264.33 424.52,-268.4 439.23,-272.36"/>
<polygon fill="black" stroke="black" points="438.62,-275.82 449.19,-275.08 440.46,-269.07 438.62,-275.82"/>
</g>
<!-- Match -->
<g id="node11" class="node">
<title>Match</title>
<ellipse fill="none" stroke="black" cx="494.84" cy="-126" rx="32.9" ry="18"/>
<text text-anchor="middle" x="494.84" y="-121.8" font-family="Times,serif" font-size="14.00">Match</text>
</g>
<!-- Grammar&#45;&gt;Match -->
<g id="edge12" class="edge">
<title>Grammar&#45;&gt;Match</title>
<path fill="none" stroke="black" d="M286.25,-126C332.62,-126 405.86,-126 451.81,-126"/>
<polygon fill="black" stroke="black" points="452.03,-129.5 462.03,-126 452.03,-122.5 452.03,-129.5"/>
</g>
<!-- CtxSymIterator::Keys&#45;&gt;CtxSymIterator -->
<g id="edge5" class="edge">
<title>CtxSymIterator::Keys&#45;&gt;CtxSymIterator</title>
<path fill="none" stroke="black" d="M311.99,-330.94C337.73,-326.47 367.16,-320.95 393.72,-315 408.57,-311.67 424.52,-307.6 439.23,-303.64"/>
<polygon fill="black" stroke="black" points="440.46,-306.93 449.19,-300.92 438.62,-300.18 440.46,-306.93"/>
</g>
<!-- Map -->
<g id="node9" class="node">
<title>Map</title>
<ellipse fill="none" stroke="black" cx="494.84" cy="-72" rx="27" ry="18"/>
<text text-anchor="middle" x="494.84" y="-67.8" font-family="Times,serif" font-size="14.00">Map</text>
</g>
<!-- PseudoStash&#45;&gt;Map -->
<g id="edge6" class="edge">
<title>PseudoStash&#45;&gt;Map</title>
<path fill="none" stroke="black" d="M297.24,-72C345.68,-72 415.36,-72 457.45,-72"/>
<polygon fill="black" stroke="black" points="457.52,-75.5 467.52,-72 457.52,-68.5 457.52,-75.5"/>
</g>
</g>
</svg>
